<mxfile host="app.diagrams.net" modified="2024-05-23T13:52:48.770Z" agent="Mozilla/5.0 (Windows NT 10.0; Win64; x64) AppleWebKit/537.36 (KHTML, like Gecko) Chrome/124.0.0.0 Safari/537.36" etag="l1B2ZsrIaonHL2jcc5Yp" version="24.4.6" type="device">
  <diagram name="페이지-1" id="o0wN1-Vcmxfc89to4h0m">
    <mxGraphModel dx="3033" dy="1200" grid="1" gridSize="10" guides="1" tooltips="1" connect="1" arrows="1" fold="1" page="1" pageScale="1" pageWidth="827" pageHeight="1169" math="0" shadow="0">
      <root>
        <mxCell id="0" />
        <mxCell id="1" parent="0" />
        <mxCell id="jxsSpErDHQEiXLP2jRdu-1" value="회원 약관" style="ellipse;whiteSpace=wrap;html=1;fillColor=#4D4D4D;fontColor=#FFFFFF;" parent="1" vertex="1">
          <mxGeometry x="237.5" y="130" width="120" height="80" as="geometry" />
        </mxCell>
        <mxCell id="jxsSpErDHQEiXLP2jRdu-2" value="개인정보처리방침" style="ellipse;whiteSpace=wrap;html=1;fillColor=#4D4D4D;fontColor=#FFFFFF;" parent="1" vertex="1">
          <mxGeometry x="370" y="130" width="120" height="80" as="geometry" />
        </mxCell>
        <mxCell id="jxsSpErDHQEiXLP2jRdu-3" value="오시는 길" style="ellipse;whiteSpace=wrap;html=1;fillColor=#4D4D4D;fontColor=#FFFFFF;" parent="1" vertex="1">
          <mxGeometry x="505" y="130" width="120" height="80" as="geometry" />
        </mxCell>
        <mxCell id="jxsSpErDHQEiXLP2jRdu-4" value="&lt;font&gt;사이트 소개&lt;/font&gt;" style="ellipse;whiteSpace=wrap;html=1;fillColor=#1C42FF;fontColor=#FFFFFF;" parent="1" vertex="1">
          <mxGeometry x="370" y="250" width="120" height="80" as="geometry" />
        </mxCell>
        <mxCell id="jxsSpErDHQEiXLP2jRdu-5" value="" style="endArrow=classic;html=1;rounded=0;exitX=0.5;exitY=1;exitDx=0;exitDy=0;entryX=0.5;entryY=0;entryDx=0;entryDy=0;" parent="1" source="jxsSpErDHQEiXLP2jRdu-1" target="jxsSpErDHQEiXLP2jRdu-4" edge="1">
          <mxGeometry width="50" height="50" relative="1" as="geometry">
            <mxPoint x="390" y="430" as="sourcePoint" />
            <mxPoint x="440" y="380" as="targetPoint" />
          </mxGeometry>
        </mxCell>
        <mxCell id="jxsSpErDHQEiXLP2jRdu-6" value="" style="endArrow=classic;html=1;rounded=0;exitX=0.5;exitY=1;exitDx=0;exitDy=0;entryX=0.5;entryY=0;entryDx=0;entryDy=0;" parent="1" source="jxsSpErDHQEiXLP2jRdu-2" target="jxsSpErDHQEiXLP2jRdu-4" edge="1">
          <mxGeometry width="50" height="50" relative="1" as="geometry">
            <mxPoint x="390" y="430" as="sourcePoint" />
            <mxPoint x="440" y="380" as="targetPoint" />
          </mxGeometry>
        </mxCell>
        <mxCell id="jxsSpErDHQEiXLP2jRdu-7" value="" style="endArrow=classic;html=1;rounded=0;exitX=0.5;exitY=1;exitDx=0;exitDy=0;entryX=0.5;entryY=0;entryDx=0;entryDy=0;" parent="1" source="jxsSpErDHQEiXLP2jRdu-3" target="jxsSpErDHQEiXLP2jRdu-4" edge="1">
          <mxGeometry width="50" height="50" relative="1" as="geometry">
            <mxPoint x="390" y="430" as="sourcePoint" />
            <mxPoint x="440" y="380" as="targetPoint" />
          </mxGeometry>
        </mxCell>
        <mxCell id="jxsSpErDHQEiXLP2jRdu-8" value="&lt;span style=&quot;background-color: rgb(0, 127, 255);&quot;&gt;관리자&lt;/span&gt;" style="shape=umlActor;verticalLabelPosition=bottom;verticalAlign=top;html=1;outlineConnect=0;" parent="1" vertex="1">
          <mxGeometry x="1310" y="490" width="30" height="60" as="geometry" />
        </mxCell>
        <mxCell id="jxsSpErDHQEiXLP2jRdu-15" value="&lt;span style=&quot;background-color: rgb(102, 51, 0);&quot;&gt;비회원&lt;/span&gt;" style="shape=umlActor;verticalLabelPosition=bottom;verticalAlign=top;html=1;outlineConnect=0;" parent="1" vertex="1">
          <mxGeometry x="-290" y="425" width="30" height="60" as="geometry" />
        </mxCell>
        <mxCell id="jxsSpErDHQEiXLP2jRdu-17" value="&lt;span style=&quot;background-color: rgb(229, 59, 255);&quot;&gt;회원&lt;/span&gt;" style="shape=umlActor;verticalLabelPosition=bottom;verticalAlign=top;html=1;outlineConnect=0;" parent="1" vertex="1">
          <mxGeometry x="-290" y="570" width="30" height="60" as="geometry" />
        </mxCell>
        <mxCell id="jxsSpErDHQEiXLP2jRdu-18" value="&lt;font color=&quot;#ffffff&quot;&gt;관광 명소&lt;/font&gt;" style="ellipse;whiteSpace=wrap;html=1;fillColor=#1C42FF;" parent="1" vertex="1">
          <mxGeometry x="370" y="470" width="120" height="80" as="geometry" />
        </mxCell>
        <mxCell id="jxsSpErDHQEiXLP2jRdu-19" value="축제" style="ellipse;whiteSpace=wrap;html=1;fillColor=#4D4D4D;fontColor=#FFFFFF;" parent="1" vertex="1">
          <mxGeometry x="237.5" y="335" width="120" height="80" as="geometry" />
        </mxCell>
        <mxCell id="jxsSpErDHQEiXLP2jRdu-20" value="산림" style="ellipse;whiteSpace=wrap;html=1;fillColor=#4D4D4D;fontColor=#FFFFFF;" parent="1" vertex="1">
          <mxGeometry x="368.5" y="335" width="120" height="80" as="geometry" />
        </mxCell>
        <mxCell id="jxsSpErDHQEiXLP2jRdu-21" value="해변" style="ellipse;whiteSpace=wrap;html=1;fillColor=#4D4D4D;fontColor=#FFFFFF;" parent="1" vertex="1">
          <mxGeometry x="502.5" y="335" width="120" height="80" as="geometry" />
        </mxCell>
        <mxCell id="jxsSpErDHQEiXLP2jRdu-22" value="" style="endArrow=classic;html=1;rounded=0;entryX=0.5;entryY=0;entryDx=0;entryDy=0;exitX=0.5;exitY=1;exitDx=0;exitDy=0;" parent="1" source="jxsSpErDHQEiXLP2jRdu-19" target="jxsSpErDHQEiXLP2jRdu-18" edge="1">
          <mxGeometry width="50" height="50" relative="1" as="geometry">
            <mxPoint x="344" y="395" as="sourcePoint" />
            <mxPoint x="384" y="470" as="targetPoint" />
          </mxGeometry>
        </mxCell>
        <mxCell id="jxsSpErDHQEiXLP2jRdu-23" value="" style="endArrow=classic;html=1;rounded=0;exitX=0.5;exitY=1;exitDx=0;exitDy=0;" parent="1" source="jxsSpErDHQEiXLP2jRdu-20" edge="1">
          <mxGeometry width="50" height="50" relative="1" as="geometry">
            <mxPoint x="390" y="395" as="sourcePoint" />
            <mxPoint x="430" y="475" as="targetPoint" />
          </mxGeometry>
        </mxCell>
        <mxCell id="jxsSpErDHQEiXLP2jRdu-24" value="" style="endArrow=classic;html=1;rounded=0;entryX=0.5;entryY=0;entryDx=0;entryDy=0;exitX=0.5;exitY=1;exitDx=0;exitDy=0;" parent="1" source="jxsSpErDHQEiXLP2jRdu-21" target="jxsSpErDHQEiXLP2jRdu-18" edge="1">
          <mxGeometry width="50" height="50" relative="1" as="geometry">
            <mxPoint x="390" y="430" as="sourcePoint" />
            <mxPoint x="440" y="380" as="targetPoint" />
          </mxGeometry>
        </mxCell>
        <mxCell id="jxsSpErDHQEiXLP2jRdu-25" value="include" style="text;html=1;align=center;verticalAlign=middle;resizable=0;points=[];autosize=1;strokeColor=none;fillColor=none;rotation=15;" parent="1" vertex="1">
          <mxGeometry x="310" y="200" width="60" height="30" as="geometry" />
        </mxCell>
        <mxCell id="jxsSpErDHQEiXLP2jRdu-26" value="include" style="text;html=1;align=center;verticalAlign=middle;resizable=0;points=[];autosize=1;strokeColor=none;fillColor=none;rotation=-15;" parent="1" vertex="1">
          <mxGeometry x="490" y="200" width="60" height="30" as="geometry" />
        </mxCell>
        <mxCell id="jxsSpErDHQEiXLP2jRdu-27" value="include" style="text;html=1;align=center;verticalAlign=middle;resizable=0;points=[];autosize=1;strokeColor=none;fillColor=none;" parent="1" vertex="1">
          <mxGeometry x="422" y="208" width="60" height="30" as="geometry" />
        </mxCell>
        <mxCell id="jxsSpErDHQEiXLP2jRdu-28" value="include" style="text;html=1;align=center;verticalAlign=middle;resizable=0;points=[];autosize=1;strokeColor=none;fillColor=none;rotation=-30;" parent="1" vertex="1">
          <mxGeometry x="475" y="435" width="60" height="30" as="geometry" />
        </mxCell>
        <mxCell id="jxsSpErDHQEiXLP2jRdu-29" value="include" style="text;html=1;align=center;verticalAlign=middle;resizable=0;points=[];autosize=1;strokeColor=none;fillColor=none;rotation=15;" parent="1" vertex="1">
          <mxGeometry x="320" y="440" width="60" height="30" as="geometry" />
        </mxCell>
        <mxCell id="jxsSpErDHQEiXLP2jRdu-30" value="include" style="text;html=1;align=center;verticalAlign=middle;resizable=0;points=[];autosize=1;strokeColor=none;fillColor=none;rotation=0;" parent="1" vertex="1">
          <mxGeometry x="400" y="415" width="60" height="30" as="geometry" />
        </mxCell>
        <mxCell id="jxsSpErDHQEiXLP2jRdu-31" value="" style="endArrow=classic;html=1;rounded=0;entryX=1;entryY=0.5;entryDx=0;entryDy=0;exitX=0;exitY=0.5;exitDx=0;exitDy=0;" parent="1" target="jxsSpErDHQEiXLP2jRdu-18" edge="1" source="jxsSpErDHQEiXLP2jRdu-32">
          <mxGeometry width="50" height="50" relative="1" as="geometry">
            <mxPoint x="640" y="510" as="sourcePoint" />
            <mxPoint x="440" y="380" as="targetPoint" />
          </mxGeometry>
        </mxCell>
        <mxCell id="jxsSpErDHQEiXLP2jRdu-32" value="&lt;font color=&quot;#007fff&quot;&gt;내용수정&lt;/font&gt;" style="ellipse;whiteSpace=wrap;html=1;" parent="1" vertex="1">
          <mxGeometry x="1100" y="455" width="120" height="80" as="geometry" />
        </mxCell>
        <mxCell id="jxsSpErDHQEiXLP2jRdu-33" value="" style="endArrow=classic;html=1;rounded=0;entryX=1;entryY=0.5;entryDx=0;entryDy=0;" parent="1" target="jxsSpErDHQEiXLP2jRdu-32" edge="1" source="jxsSpErDHQEiXLP2jRdu-8">
          <mxGeometry width="50" height="50" relative="1" as="geometry">
            <mxPoint x="1000" y="260" as="sourcePoint" />
            <mxPoint x="580" y="380" as="targetPoint" />
          </mxGeometry>
        </mxCell>
        <mxCell id="jxsSpErDHQEiXLP2jRdu-34" value="extend" style="text;html=1;align=center;verticalAlign=middle;resizable=0;points=[];autosize=1;strokeColor=none;fillColor=none;rotation=0;" parent="1" vertex="1">
          <mxGeometry x="535" y="505" width="60" height="30" as="geometry" />
        </mxCell>
        <mxCell id="jxsSpErDHQEiXLP2jRdu-35" value="" style="endArrow=classic;html=1;rounded=0;entryX=0;entryY=0.5;entryDx=0;entryDy=0;" parent="1" target="jxsSpErDHQEiXLP2jRdu-4" edge="1" source="jxsSpErDHQEiXLP2jRdu-15">
          <mxGeometry width="50" height="50" relative="1" as="geometry">
            <mxPoint x="70" y="240" as="sourcePoint" />
            <mxPoint x="150" y="280" as="targetPoint" />
          </mxGeometry>
        </mxCell>
        <mxCell id="jxsSpErDHQEiXLP2jRdu-39" value="&lt;font color=&quot;#ffffff&quot;&gt;참여 공간&lt;/font&gt;" style="ellipse;whiteSpace=wrap;html=1;fillColor=#1C42FF;" parent="1" vertex="1">
          <mxGeometry x="368.5" y="1010" width="120" height="80" as="geometry" />
        </mxCell>
        <mxCell id="jxsSpErDHQEiXLP2jRdu-42" value="회원가입" style="ellipse;whiteSpace=wrap;html=1;fontColor=#FFFFFF;fillColor=#4D4D4D;" parent="1" vertex="1">
          <mxGeometry x="-450" y="680" width="120" height="80" as="geometry" />
        </mxCell>
        <mxCell id="jxsSpErDHQEiXLP2jRdu-43" value="" style="endArrow=classic;html=1;rounded=0;entryX=1;entryY=0.5;entryDx=0;entryDy=0;" parent="1" target="YzsnA9r8SB-u-rYaVlL_-2" edge="1" source="jxsSpErDHQEiXLP2jRdu-15">
          <mxGeometry width="50" height="50" relative="1" as="geometry">
            <mxPoint x="40" y="290" as="sourcePoint" />
            <mxPoint x="440" y="380" as="targetPoint" />
          </mxGeometry>
        </mxCell>
        <mxCell id="jxsSpErDHQEiXLP2jRdu-48" value="&lt;font color=&quot;#007fff&quot;&gt;게시판 관리&lt;/font&gt;" style="ellipse;whiteSpace=wrap;html=1;" parent="1" vertex="1">
          <mxGeometry x="1040" y="770" width="120" height="80" as="geometry" />
        </mxCell>
        <mxCell id="jxsSpErDHQEiXLP2jRdu-49" value="" style="endArrow=classic;html=1;rounded=0;entryX=1;entryY=0.5;entryDx=0;entryDy=0;" parent="1" target="jxsSpErDHQEiXLP2jRdu-48" edge="1" source="jxsSpErDHQEiXLP2jRdu-8">
          <mxGeometry width="50" height="50" relative="1" as="geometry">
            <mxPoint x="1000" y="260" as="sourcePoint" />
            <mxPoint x="580" y="380" as="targetPoint" />
          </mxGeometry>
        </mxCell>
        <mxCell id="jxsSpErDHQEiXLP2jRdu-50" value="" style="endArrow=classic;html=1;rounded=0;entryX=1;entryY=0.5;entryDx=0;entryDy=0;exitX=0;exitY=0.5;exitDx=0;exitDy=0;" parent="1" source="jxsSpErDHQEiXLP2jRdu-48" target="jxsSpErDHQEiXLP2jRdu-39" edge="1">
          <mxGeometry width="50" height="50" relative="1" as="geometry">
            <mxPoint x="390" y="630" as="sourcePoint" />
            <mxPoint x="440" y="580" as="targetPoint" />
          </mxGeometry>
        </mxCell>
        <mxCell id="jxsSpErDHQEiXLP2jRdu-53" value="" style="endArrow=classic;html=1;rounded=0;" parent="1" source="jxsSpErDHQEiXLP2jRdu-15" target="jxsSpErDHQEiXLP2jRdu-18" edge="1">
          <mxGeometry width="50" height="50" relative="1" as="geometry">
            <mxPoint x="70" y="250" as="sourcePoint" />
            <mxPoint x="440" y="480" as="targetPoint" />
          </mxGeometry>
        </mxCell>
        <mxCell id="jxsSpErDHQEiXLP2jRdu-56" value="" style="endArrow=classic;html=1;rounded=0;exitX=0.5;exitY=0;exitDx=0;exitDy=0;" parent="1" source="jxsSpErDHQEiXLP2jRdu-42" target="jxsSpErDHQEiXLP2jRdu-17" edge="1">
          <mxGeometry width="50" height="50" relative="1" as="geometry">
            <mxPoint x="390" y="530" as="sourcePoint" />
            <mxPoint x="440" y="480" as="targetPoint" />
          </mxGeometry>
        </mxCell>
        <mxCell id="jxsSpErDHQEiXLP2jRdu-58" value="&lt;font color=&quot;#ff443d&quot;&gt;회원 탈퇴&lt;/font&gt;" style="ellipse;whiteSpace=wrap;html=1;fillColor=#FFFF99;" parent="1" vertex="1">
          <mxGeometry x="-340" y="760" width="120" height="80" as="geometry" />
        </mxCell>
        <mxCell id="jxsSpErDHQEiXLP2jRdu-59" value="" style="endArrow=classic;html=1;rounded=0;entryX=0.5;entryY=0;entryDx=0;entryDy=0;" parent="1" source="jxsSpErDHQEiXLP2jRdu-17" target="jxsSpErDHQEiXLP2jRdu-58" edge="1">
          <mxGeometry width="50" height="50" relative="1" as="geometry">
            <mxPoint x="390" y="530" as="sourcePoint" />
            <mxPoint x="440" y="480" as="targetPoint" />
          </mxGeometry>
        </mxCell>
        <mxCell id="jxsSpErDHQEiXLP2jRdu-60" value="&lt;font color=&quot;#ff443d&quot;&gt;정보수정&lt;/font&gt;" style="ellipse;whiteSpace=wrap;html=1;fillColor=#FFFF99;" parent="1" vertex="1">
          <mxGeometry x="-210" y="760" width="120" height="80" as="geometry" />
        </mxCell>
        <mxCell id="jxsSpErDHQEiXLP2jRdu-61" value="" style="endArrow=classic;html=1;rounded=0;entryX=0.5;entryY=0;entryDx=0;entryDy=0;" parent="1" source="jxsSpErDHQEiXLP2jRdu-17" target="jxsSpErDHQEiXLP2jRdu-60" edge="1">
          <mxGeometry width="50" height="50" relative="1" as="geometry">
            <mxPoint x="390" y="530" as="sourcePoint" />
            <mxPoint x="440" y="480" as="targetPoint" />
          </mxGeometry>
        </mxCell>
        <mxCell id="jxsSpErDHQEiXLP2jRdu-62" value="&lt;font color=&quot;#007fff&quot;&gt;회원 관리&lt;/font&gt;" style="ellipse;whiteSpace=wrap;html=1;" parent="1" vertex="1">
          <mxGeometry x="1241" y="770" width="120" height="80" as="geometry" />
        </mxCell>
        <mxCell id="jxsSpErDHQEiXLP2jRdu-63" value="" style="endArrow=classic;html=1;rounded=0;entryX=0.5;entryY=0;entryDx=0;entryDy=0;" parent="1" source="jxsSpErDHQEiXLP2jRdu-8" target="jxsSpErDHQEiXLP2jRdu-62" edge="1">
          <mxGeometry width="50" height="50" relative="1" as="geometry">
            <mxPoint x="530" y="530" as="sourcePoint" />
            <mxPoint x="580" y="480" as="targetPoint" />
          </mxGeometry>
        </mxCell>
        <mxCell id="pu0LjGpwRKAPojnVLev5-4" value="extend" style="text;html=1;align=center;verticalAlign=middle;resizable=0;points=[];autosize=1;strokeColor=none;fillColor=none;rotation=-30;" parent="1" vertex="1">
          <mxGeometry x="750" y="680" width="60" height="30" as="geometry" />
        </mxCell>
        <mxCell id="YzsnA9r8SB-u-rYaVlL_-1" value="" style="endArrow=classic;html=1;rounded=0;exitX=0.5;exitY=1;exitDx=0;exitDy=0;entryX=0.5;entryY=0;entryDx=0;entryDy=0;" edge="1" parent="1" source="YzsnA9r8SB-u-rYaVlL_-2" target="jxsSpErDHQEiXLP2jRdu-42">
          <mxGeometry width="50" height="50" relative="1" as="geometry">
            <mxPoint x="-119.99999999999977" y="560" as="sourcePoint" />
            <mxPoint x="-30" y="620" as="targetPoint" />
          </mxGeometry>
        </mxCell>
        <mxCell id="YzsnA9r8SB-u-rYaVlL_-2" value="로그인" style="ellipse;whiteSpace=wrap;html=1;fillColor=#4D4D4D;fontColor=#FFFFFF;" vertex="1" parent="1">
          <mxGeometry x="-450" y="415" width="120" height="80" as="geometry" />
        </mxCell>
        <mxCell id="YzsnA9r8SB-u-rYaVlL_-3" value="" style="endArrow=classic;html=1;rounded=0;exitX=0.5;exitY=1;exitDx=0;exitDy=0;" edge="1" parent="1" source="YzsnA9r8SB-u-rYaVlL_-2" target="jxsSpErDHQEiXLP2jRdu-17">
          <mxGeometry width="50" height="50" relative="1" as="geometry">
            <mxPoint x="6" y="641" as="sourcePoint" />
            <mxPoint x="50" y="569" as="targetPoint" />
          </mxGeometry>
        </mxCell>
        <mxCell id="YzsnA9r8SB-u-rYaVlL_-6" value="&lt;font color=&quot;#ffffff&quot;&gt;문화 예술&lt;/font&gt;" style="ellipse;whiteSpace=wrap;html=1;fillColor=#1C42FF;" vertex="1" parent="1">
          <mxGeometry x="370" y="680" width="120" height="80" as="geometry" />
        </mxCell>
        <mxCell id="YzsnA9r8SB-u-rYaVlL_-7" value="문화재" style="ellipse;whiteSpace=wrap;html=1;fillColor=#4D4D4D;fontColor=#FFFFFF;" vertex="1" parent="1">
          <mxGeometry x="236" y="560" width="120" height="80" as="geometry" />
        </mxCell>
        <mxCell id="YzsnA9r8SB-u-rYaVlL_-8" value="박물관/전시" style="ellipse;whiteSpace=wrap;html=1;fillColor=#4D4D4D;fontColor=#FFFFFF;" vertex="1" parent="1">
          <mxGeometry x="370" y="560" width="120" height="80" as="geometry" />
        </mxCell>
        <mxCell id="YzsnA9r8SB-u-rYaVlL_-9" value="이달의 공연" style="ellipse;whiteSpace=wrap;html=1;fillColor=#4D4D4D;fontColor=#FFFFFF;" vertex="1" parent="1">
          <mxGeometry x="501" y="560" width="120" height="80" as="geometry" />
        </mxCell>
        <mxCell id="YzsnA9r8SB-u-rYaVlL_-10" value="" style="endArrow=classic;html=1;rounded=0;entryX=0;entryY=0.5;entryDx=0;entryDy=0;exitX=0.5;exitY=1;exitDx=0;exitDy=0;" edge="1" parent="1" source="YzsnA9r8SB-u-rYaVlL_-7" target="YzsnA9r8SB-u-rYaVlL_-6">
          <mxGeometry width="50" height="50" relative="1" as="geometry">
            <mxPoint x="342.5" y="620" as="sourcePoint" />
            <mxPoint x="428.5" y="695" as="targetPoint" />
          </mxGeometry>
        </mxCell>
        <mxCell id="YzsnA9r8SB-u-rYaVlL_-12" value="include" style="text;html=1;align=center;verticalAlign=middle;resizable=0;points=[];autosize=1;strokeColor=none;fillColor=none;rotation=15;" vertex="1" parent="1">
          <mxGeometry x="140" y="760" width="60" height="30" as="geometry" />
        </mxCell>
        <mxCell id="YzsnA9r8SB-u-rYaVlL_-13" value="" style="endArrow=classic;html=1;rounded=0;entryX=0.5;entryY=0;entryDx=0;entryDy=0;exitX=0.5;exitY=1;exitDx=0;exitDy=0;" edge="1" parent="1" source="YzsnA9r8SB-u-rYaVlL_-8" target="YzsnA9r8SB-u-rYaVlL_-6">
          <mxGeometry width="50" height="50" relative="1" as="geometry">
            <mxPoint x="377" y="600" as="sourcePoint" />
            <mxPoint x="451" y="680" as="targetPoint" />
          </mxGeometry>
        </mxCell>
        <mxCell id="YzsnA9r8SB-u-rYaVlL_-15" value="" style="endArrow=classic;html=1;rounded=0;entryX=1;entryY=0.5;entryDx=0;entryDy=0;exitX=0.5;exitY=1;exitDx=0;exitDy=0;" edge="1" parent="1" source="YzsnA9r8SB-u-rYaVlL_-9" target="YzsnA9r8SB-u-rYaVlL_-6">
          <mxGeometry width="50" height="50" relative="1" as="geometry">
            <mxPoint x="531" y="680" as="sourcePoint" />
            <mxPoint x="549" y="710" as="targetPoint" />
          </mxGeometry>
        </mxCell>
        <mxCell id="YzsnA9r8SB-u-rYaVlL_-16" value="&lt;font color=&quot;#ffffff&quot;&gt;숙박 / 음식점&lt;/font&gt;" style="ellipse;whiteSpace=wrap;html=1;fillColor=#1C42FF;" vertex="1" parent="1">
          <mxGeometry x="370" y="890" width="120" height="80" as="geometry" />
        </mxCell>
        <mxCell id="YzsnA9r8SB-u-rYaVlL_-17" value="음식점" style="ellipse;whiteSpace=wrap;html=1;fillColor=#4D4D4D;fontColor=#FFFFFF;" vertex="1" parent="1">
          <mxGeometry x="236" y="770" width="120" height="80" as="geometry" />
        </mxCell>
        <mxCell id="YzsnA9r8SB-u-rYaVlL_-18" value="숙박 정보" style="ellipse;whiteSpace=wrap;html=1;fillColor=#4D4D4D;fontColor=#FFFFFF;" vertex="1" parent="1">
          <mxGeometry x="370" y="770" width="120" height="80" as="geometry" />
        </mxCell>
        <mxCell id="YzsnA9r8SB-u-rYaVlL_-19" value="속초중앙시장" style="ellipse;whiteSpace=wrap;html=1;fillColor=#4D4D4D;fontColor=#FFFFFF;" vertex="1" parent="1">
          <mxGeometry x="501" y="770" width="120" height="80" as="geometry" />
        </mxCell>
        <mxCell id="YzsnA9r8SB-u-rYaVlL_-20" value="" style="endArrow=classic;html=1;rounded=0;entryX=0;entryY=0.5;entryDx=0;entryDy=0;exitX=0.5;exitY=1;exitDx=0;exitDy=0;" edge="1" parent="1" source="YzsnA9r8SB-u-rYaVlL_-17" target="YzsnA9r8SB-u-rYaVlL_-16">
          <mxGeometry width="50" height="50" relative="1" as="geometry">
            <mxPoint x="342.5" y="830" as="sourcePoint" />
            <mxPoint x="428.5" y="905" as="targetPoint" />
          </mxGeometry>
        </mxCell>
        <mxCell id="YzsnA9r8SB-u-rYaVlL_-21" value="" style="endArrow=classic;html=1;rounded=0;entryX=0.5;entryY=0;entryDx=0;entryDy=0;exitX=0.5;exitY=1;exitDx=0;exitDy=0;" edge="1" parent="1" source="YzsnA9r8SB-u-rYaVlL_-18" target="YzsnA9r8SB-u-rYaVlL_-16">
          <mxGeometry width="50" height="50" relative="1" as="geometry">
            <mxPoint x="377" y="810" as="sourcePoint" />
            <mxPoint x="451" y="890" as="targetPoint" />
          </mxGeometry>
        </mxCell>
        <mxCell id="YzsnA9r8SB-u-rYaVlL_-22" value="" style="endArrow=classic;html=1;rounded=0;entryX=1;entryY=0.5;entryDx=0;entryDy=0;exitX=0.5;exitY=1;exitDx=0;exitDy=0;" edge="1" parent="1" source="YzsnA9r8SB-u-rYaVlL_-19" target="YzsnA9r8SB-u-rYaVlL_-16">
          <mxGeometry width="50" height="50" relative="1" as="geometry">
            <mxPoint x="475" y="840" as="sourcePoint" />
            <mxPoint x="549" y="920" as="targetPoint" />
          </mxGeometry>
        </mxCell>
        <mxCell id="YzsnA9r8SB-u-rYaVlL_-24" value="" style="endArrow=classic;html=1;rounded=0;entryX=0;entryY=0.5;entryDx=0;entryDy=0;" edge="1" parent="1" source="jxsSpErDHQEiXLP2jRdu-15" target="YzsnA9r8SB-u-rYaVlL_-6">
          <mxGeometry width="50" height="50" relative="1" as="geometry">
            <mxPoint x="-90" y="657" as="sourcePoint" />
            <mxPoint x="340" y="670" as="targetPoint" />
          </mxGeometry>
        </mxCell>
        <mxCell id="YzsnA9r8SB-u-rYaVlL_-25" value="" style="endArrow=classic;html=1;rounded=0;" edge="1" parent="1" source="jxsSpErDHQEiXLP2jRdu-15">
          <mxGeometry width="50" height="50" relative="1" as="geometry">
            <mxPoint x="-90" y="590" as="sourcePoint" />
            <mxPoint x="370" y="930" as="targetPoint" />
          </mxGeometry>
        </mxCell>
        <mxCell id="YzsnA9r8SB-u-rYaVlL_-26" value="" style="endArrow=classic;html=1;rounded=0;entryX=0;entryY=0.5;entryDx=0;entryDy=0;" edge="1" parent="1" source="jxsSpErDHQEiXLP2jRdu-15" target="jxsSpErDHQEiXLP2jRdu-39">
          <mxGeometry width="50" height="50" relative="1" as="geometry">
            <mxPoint x="-80" y="610" as="sourcePoint" />
            <mxPoint x="350" y="1030" as="targetPoint" />
          </mxGeometry>
        </mxCell>
        <mxCell id="YzsnA9r8SB-u-rYaVlL_-27" value="공지사항" style="ellipse;whiteSpace=wrap;html=1;fillColor=#4D4D4D;fontColor=#FFFFFF;" vertex="1" parent="1">
          <mxGeometry x="236" y="1130" width="120" height="80" as="geometry" />
        </mxCell>
        <mxCell id="YzsnA9r8SB-u-rYaVlL_-28" value="&lt;font color=&quot;#ff3912&quot;&gt;묻고 답하기&lt;/font&gt;" style="ellipse;whiteSpace=wrap;html=1;fillColor=#FFFF99;" vertex="1" parent="1">
          <mxGeometry x="368.5" y="1130" width="120" height="80" as="geometry" />
        </mxCell>
        <mxCell id="YzsnA9r8SB-u-rYaVlL_-29" value="&lt;font color=&quot;#ff3912&quot;&gt;자료실&lt;/font&gt;" style="ellipse;whiteSpace=wrap;html=1;fillColor=#FFFF99;" vertex="1" parent="1">
          <mxGeometry x="501" y="1130" width="120" height="80" as="geometry" />
        </mxCell>
        <mxCell id="YzsnA9r8SB-u-rYaVlL_-30" value="" style="endArrow=classic;html=1;rounded=0;entryX=0.5;entryY=1;entryDx=0;entryDy=0;exitX=0.5;exitY=0;exitDx=0;exitDy=0;" edge="1" parent="1" source="YzsnA9r8SB-u-rYaVlL_-28" target="jxsSpErDHQEiXLP2jRdu-39">
          <mxGeometry width="50" height="50" relative="1" as="geometry">
            <mxPoint x="534.31" y="1070" as="sourcePoint" />
            <mxPoint x="534.31" y="1110" as="targetPoint" />
          </mxGeometry>
        </mxCell>
        <mxCell id="YzsnA9r8SB-u-rYaVlL_-31" value="" style="endArrow=classic;html=1;rounded=0;entryX=0;entryY=0.5;entryDx=0;entryDy=0;exitX=0.5;exitY=0;exitDx=0;exitDy=0;" edge="1" parent="1" source="YzsnA9r8SB-u-rYaVlL_-27" target="jxsSpErDHQEiXLP2jRdu-39">
          <mxGeometry width="50" height="50" relative="1" as="geometry">
            <mxPoint x="320" y="1120" as="sourcePoint" />
            <mxPoint x="320" y="1080" as="targetPoint" />
          </mxGeometry>
        </mxCell>
        <mxCell id="YzsnA9r8SB-u-rYaVlL_-32" value="" style="endArrow=classic;html=1;rounded=0;entryX=1;entryY=0.5;entryDx=0;entryDy=0;exitX=0.5;exitY=0;exitDx=0;exitDy=0;" edge="1" parent="1" source="YzsnA9r8SB-u-rYaVlL_-29" target="jxsSpErDHQEiXLP2jRdu-39">
          <mxGeometry width="50" height="50" relative="1" as="geometry">
            <mxPoint x="548" y="1140" as="sourcePoint" />
            <mxPoint x="621" y="1060" as="targetPoint" />
          </mxGeometry>
        </mxCell>
        <mxCell id="YzsnA9r8SB-u-rYaVlL_-33" value="" style="endArrow=classic;html=1;rounded=0;entryX=1;entryY=0.5;entryDx=0;entryDy=0;exitX=0;exitY=0.5;exitDx=0;exitDy=0;" edge="1" parent="1" source="jxsSpErDHQEiXLP2jRdu-32" target="jxsSpErDHQEiXLP2jRdu-4">
          <mxGeometry width="50" height="50" relative="1" as="geometry">
            <mxPoint x="700" y="464" as="sourcePoint" />
            <mxPoint x="510" y="464" as="targetPoint" />
          </mxGeometry>
        </mxCell>
        <mxCell id="YzsnA9r8SB-u-rYaVlL_-34" value="" style="endArrow=classic;html=1;rounded=0;entryX=1;entryY=0.5;entryDx=0;entryDy=0;exitX=0;exitY=0.5;exitDx=0;exitDy=0;" edge="1" parent="1" source="jxsSpErDHQEiXLP2jRdu-32" target="YzsnA9r8SB-u-rYaVlL_-6">
          <mxGeometry width="50" height="50" relative="1" as="geometry">
            <mxPoint x="890" y="550" as="sourcePoint" />
            <mxPoint x="520" y="670" as="targetPoint" />
          </mxGeometry>
        </mxCell>
        <mxCell id="YzsnA9r8SB-u-rYaVlL_-35" value="" style="endArrow=classic;html=1;rounded=0;entryX=1;entryY=0.5;entryDx=0;entryDy=0;exitX=0;exitY=0.5;exitDx=0;exitDy=0;" edge="1" parent="1" source="jxsSpErDHQEiXLP2jRdu-32" target="YzsnA9r8SB-u-rYaVlL_-16">
          <mxGeometry width="50" height="50" relative="1" as="geometry">
            <mxPoint x="1140" y="500" as="sourcePoint" />
            <mxPoint x="530" y="790" as="targetPoint" />
          </mxGeometry>
        </mxCell>
        <mxCell id="YzsnA9r8SB-u-rYaVlL_-36" value="" style="endArrow=classic;html=1;rounded=0;entryX=1;entryY=0.5;entryDx=0;entryDy=0;exitX=0;exitY=0.5;exitDx=0;exitDy=0;" edge="1" parent="1" source="jxsSpErDHQEiXLP2jRdu-32" target="jxsSpErDHQEiXLP2jRdu-39">
          <mxGeometry width="50" height="50" relative="1" as="geometry">
            <mxPoint x="1150" y="527.5" as="sourcePoint" />
            <mxPoint x="530" y="992.5" as="targetPoint" />
          </mxGeometry>
        </mxCell>
        <mxCell id="YzsnA9r8SB-u-rYaVlL_-37" value="include" style="text;html=1;align=center;verticalAlign=middle;resizable=0;points=[];autosize=1;strokeColor=none;fillColor=none;rotation=0;" vertex="1" parent="1">
          <mxGeometry x="400" y="640" width="60" height="30" as="geometry" />
        </mxCell>
        <mxCell id="YzsnA9r8SB-u-rYaVlL_-38" value="include" style="text;html=1;align=center;verticalAlign=middle;resizable=0;points=[];autosize=1;strokeColor=none;fillColor=none;rotation=0;" vertex="1" parent="1">
          <mxGeometry x="297.5" y="650" width="60" height="30" as="geometry" />
        </mxCell>
        <mxCell id="YzsnA9r8SB-u-rYaVlL_-41" value="include" style="text;html=1;align=center;verticalAlign=middle;resizable=0;points=[];autosize=1;strokeColor=none;fillColor=none;rotation=0;" vertex="1" parent="1">
          <mxGeometry x="502.5" y="650" width="60" height="30" as="geometry" />
        </mxCell>
        <mxCell id="YzsnA9r8SB-u-rYaVlL_-42" value="include" style="text;html=1;align=center;verticalAlign=middle;resizable=0;points=[];autosize=1;strokeColor=none;fillColor=none;rotation=0;" vertex="1" parent="1">
          <mxGeometry x="398.5" y="850" width="60" height="30" as="geometry" />
        </mxCell>
        <mxCell id="YzsnA9r8SB-u-rYaVlL_-43" value="include" style="text;html=1;align=center;verticalAlign=middle;resizable=0;points=[];autosize=1;strokeColor=none;fillColor=none;rotation=0;" vertex="1" parent="1">
          <mxGeometry x="320" y="855" width="60" height="30" as="geometry" />
        </mxCell>
        <mxCell id="YzsnA9r8SB-u-rYaVlL_-45" value="include" style="text;html=1;align=center;verticalAlign=middle;resizable=0;points=[];autosize=1;strokeColor=none;fillColor=none;rotation=0;" vertex="1" parent="1">
          <mxGeometry x="490" y="855" width="60" height="30" as="geometry" />
        </mxCell>
        <mxCell id="YzsnA9r8SB-u-rYaVlL_-46" value="include" style="text;html=1;align=center;verticalAlign=middle;resizable=0;points=[];autosize=1;strokeColor=none;fillColor=none;rotation=0;" vertex="1" parent="1">
          <mxGeometry x="400" y="1100" width="60" height="30" as="geometry" />
        </mxCell>
        <mxCell id="YzsnA9r8SB-u-rYaVlL_-47" value="include" style="text;html=1;align=center;verticalAlign=middle;resizable=0;points=[];autosize=1;strokeColor=none;fillColor=none;rotation=0;" vertex="1" parent="1">
          <mxGeometry x="320" y="1080" width="60" height="30" as="geometry" />
        </mxCell>
        <mxCell id="YzsnA9r8SB-u-rYaVlL_-48" value="include" style="text;html=1;align=center;verticalAlign=middle;resizable=0;points=[];autosize=1;strokeColor=none;fillColor=none;rotation=0;" vertex="1" parent="1">
          <mxGeometry x="482" y="1080" width="60" height="30" as="geometry" />
        </mxCell>
        <mxCell id="YzsnA9r8SB-u-rYaVlL_-52" value="extend" style="text;html=1;align=center;verticalAlign=middle;resizable=0;points=[];autosize=1;strokeColor=none;fillColor=none;rotation=-15;" vertex="1" parent="1">
          <mxGeometry x="730" y="585" width="60" height="30" as="geometry" />
        </mxCell>
        <mxCell id="YzsnA9r8SB-u-rYaVlL_-53" value="extend" style="text;html=1;align=center;verticalAlign=middle;resizable=0;points=[];autosize=1;strokeColor=none;fillColor=none;rotation=20;" vertex="1" parent="1">
          <mxGeometry x="780" y="360" width="60" height="30" as="geometry" />
        </mxCell>
        <mxCell id="YzsnA9r8SB-u-rYaVlL_-54" value="extend" style="text;html=1;align=center;verticalAlign=middle;resizable=0;points=[];autosize=1;strokeColor=none;fillColor=none;rotation=-30;" vertex="1" parent="1">
          <mxGeometry x="770" y="730" width="60" height="30" as="geometry" />
        </mxCell>
        <mxCell id="YzsnA9r8SB-u-rYaVlL_-55" value="extend" style="text;html=1;align=center;verticalAlign=middle;resizable=0;points=[];autosize=1;strokeColor=none;fillColor=none;rotation=-30;" vertex="1" parent="1">
          <mxGeometry x="810" y="870" width="60" height="30" as="geometry" />
        </mxCell>
        <mxCell id="YzsnA9r8SB-u-rYaVlL_-56" value="" style="endArrow=classic;html=1;rounded=0;entryX=0;entryY=0.5;entryDx=0;entryDy=0;" edge="1" parent="1" source="jxsSpErDHQEiXLP2jRdu-17" target="jxsSpErDHQEiXLP2jRdu-4">
          <mxGeometry width="50" height="50" relative="1" as="geometry">
            <mxPoint x="-220" y="448" as="sourcePoint" />
            <mxPoint x="280" y="210" as="targetPoint" />
          </mxGeometry>
        </mxCell>
        <mxCell id="YzsnA9r8SB-u-rYaVlL_-57" value="" style="endArrow=classic;html=1;rounded=0;entryX=0;entryY=0.5;entryDx=0;entryDy=0;" edge="1" parent="1" source="jxsSpErDHQEiXLP2jRdu-17" target="jxsSpErDHQEiXLP2jRdu-18">
          <mxGeometry width="50" height="50" relative="1" as="geometry">
            <mxPoint x="-220" y="454" as="sourcePoint" />
            <mxPoint x="280" y="433" as="targetPoint" />
          </mxGeometry>
        </mxCell>
        <mxCell id="YzsnA9r8SB-u-rYaVlL_-58" value="" style="endArrow=classic;html=1;rounded=0;entryX=0;entryY=0.5;entryDx=0;entryDy=0;" edge="1" parent="1" source="jxsSpErDHQEiXLP2jRdu-17" target="YzsnA9r8SB-u-rYaVlL_-6">
          <mxGeometry width="50" height="50" relative="1" as="geometry">
            <mxPoint x="-220" y="460" as="sourcePoint" />
            <mxPoint x="280" y="640" as="targetPoint" />
          </mxGeometry>
        </mxCell>
        <mxCell id="YzsnA9r8SB-u-rYaVlL_-59" value="" style="endArrow=classic;html=1;rounded=0;entryX=0;entryY=0.5;entryDx=0;entryDy=0;" edge="1" parent="1" source="jxsSpErDHQEiXLP2jRdu-17" target="YzsnA9r8SB-u-rYaVlL_-16">
          <mxGeometry width="50" height="50" relative="1" as="geometry">
            <mxPoint x="-110" y="780" as="sourcePoint" />
            <mxPoint x="280" y="850" as="targetPoint" />
          </mxGeometry>
        </mxCell>
        <mxCell id="YzsnA9r8SB-u-rYaVlL_-60" value="" style="endArrow=classic;html=1;rounded=0;entryX=0;entryY=0.5;entryDx=0;entryDy=0;" edge="1" parent="1" source="jxsSpErDHQEiXLP2jRdu-17" target="jxsSpErDHQEiXLP2jRdu-39">
          <mxGeometry width="50" height="50" relative="1" as="geometry">
            <mxPoint x="-220" y="470" as="sourcePoint" />
            <mxPoint x="279" y="970" as="targetPoint" />
          </mxGeometry>
        </mxCell>
        <mxCell id="YzsnA9r8SB-u-rYaVlL_-62" value="" style="endArrow=classic;html=1;rounded=0;entryX=0.5;entryY=0;entryDx=0;entryDy=0;entryPerimeter=0;dashed=1;dashPattern=12 12;" edge="1" parent="1" source="jxsSpErDHQEiXLP2jRdu-15" target="jxsSpErDHQEiXLP2jRdu-17">
          <mxGeometry width="50" height="50" relative="1" as="geometry">
            <mxPoint x="-400" y="535" as="sourcePoint" />
            <mxPoint x="-285" y="610" as="targetPoint" />
          </mxGeometry>
        </mxCell>
      </root>
    </mxGraphModel>
  </diagram>
</mxfile>
